<svg xmlns="http://www.w3.org/2000/svg" viewBox="0 0 59.6 94.11"><defs><style>.cls-1,.cls-2{fill:#000d2b;}.cls-2{stroke:#fff;stroke-miterlimit:10;stroke-width:4.96px;}</style></defs><title>Ativo 10</title><g id="Camada_2" data-name="Camada 2"><g id="Camada_4" data-name="Camada 4"><path class="cls-1" d="M59.6,29.81a29.62,29.62,0,0,1-2.88,12.8l0,.12-.75,1.46L30.36,94.11,4.12,44.93,2.89,42.62h0A29.49,29.49,0,0,1,0,29.81a29.8,29.8,0,1,1,59.6,0Z"/><path class="cls-2" d="M47.35,31.41a12.11,12.11,0,0,1-3.07,4.31l0,0-.72.58L33.34,44.61,29.8,47.49l-3.54-2.88L16.08,36.33l-.72-.58,0,0a12.21,12.21,0,0,1-3.06-4.31C9.6,25.24,12.05,17.9,17.75,15A10.67,10.67,0,0,1,29.8,16.67,10.68,10.68,0,0,1,41.86,15C47.55,17.9,50,25.24,47.35,31.41Z"/></g></g></svg>