<svg xmlns="http://www.w3.org/2000/svg" viewBox="0 0 142.5 24.98"><defs><style>.cls-1{fill:#f7fcff;}.cls-2{fill:#f9fdff;}</style></defs><title>branco ciano</title><g id="Camada_2" data-name="Camada 2"><g id="Camada_4" data-name="Camada 4"><path class="cls-1" d="M78.85,21.06h3c0,.78.47,1.28,1.67,1.28s1.67-.5,1.67-1.28-1-1-2.09-1.21c-1.77-.32-4-.74-4-3.76,0-2.36,1.79-4,4.47-4S87.91,13.64,88,16H85.11c0-.72-.47-1.29-1.53-1.29S82,15.33,82,16c0,.82.95,1,2.11,1.22,1.78.32,4,.74,4,3.76,0,2.47-1.86,4-4.67,4S78.9,23.48,78.85,21.06Z"/><path class="cls-1" d="M89.35,20.15a4.82,4.82,0,0,1,5.07-5,4.74,4.74,0,0,1,5,5v4.6H96.8V23.17A3,3,0,0,1,93.89,25,4.57,4.57,0,0,1,89.35,20.15ZM96.57,20a2.17,2.17,0,1,0-4.33,0,2.17,2.17,0,1,0,4.33,0Z"/><path class="cls-1" d="M101.28,20.21V15.35h2.85v4.86c0,1.48.73,2.11,1.79,2.11s1.79-.63,1.79-2.11V15.35h2.84v4.86c0,3.15-1.86,4.77-4.63,4.77S101.28,23.38,101.28,20.21Z"/><path class="cls-1" d="M112,19.92a4.56,4.56,0,0,1,4.56-4.82,3.14,3.14,0,0,1,2.66,1.27V11.24h2.85v8.7a4.74,4.74,0,0,1-5,5A4.82,4.82,0,0,1,112,19.92Zm7.22.12a2.17,2.17,0,1,0-4.33,0,2.17,2.17,0,1,0,4.33,0Z"/><path class="cls-1" d="M123.59,20a5,5,0,0,1,10,0v.8h-7.09a2,2,0,0,0,2.09,1.59,2,2,0,0,0,1.79-.68h2.94a4.71,4.71,0,0,1-4.73,3.23A4.82,4.82,0,0,1,123.59,20Zm7.12-1a2,2,0,0,0-2.07-1.38,1.92,1.92,0,0,0-2,1.38Z"/><rect class="cls-1" x="105.48" y="11.47" width="4.18" height="1.17" rx="0.58" transform="translate(22.98 79.59) rotate(-45)"/><path class="cls-2" d="M136.61,0a5.89,5.89,0,0,0-5.33,8.42h0l.25.45,5.18,9.72,5.06-9.87.14-.28,0,0A5.89,5.89,0,0,0,136.61,0Zm3.46,6.21a2.3,2.3,0,0,1-.6.85h0l-.14.11-2,1.64-.69.57-.7-.57-2-1.64-.14-.11h0a2.3,2.3,0,0,1-.6-.85A2.53,2.53,0,0,1,134.22,3a2.14,2.14,0,0,1,2.39.32A2.12,2.12,0,0,1,139,3,2.53,2.53,0,0,1,140.07,6.21Z"/><path class="cls-2" d="M0,18.46A6.31,6.31,0,0,1,6.61,12a6.3,6.3,0,0,1,6.46,5H9.82a3.29,3.29,0,0,0-3.21-2.11,3.39,3.39,0,0,0-3.49,3.61,3.39,3.39,0,0,0,3.49,3.61A3.29,3.29,0,0,0,9.82,20h3.25a6.29,6.29,0,0,1-6.46,5A6.31,6.31,0,0,1,0,18.46Z"/><path class="cls-2" d="M14.17,20.09A4.82,4.82,0,0,1,19.25,15a4.74,4.74,0,0,1,5,5v4.59H21.62V23.11a3,3,0,0,1-2.91,1.81A4.57,4.57,0,0,1,14.17,20.09ZM21.39,20a2.17,2.17,0,1,0-4.33,0,2.17,2.17,0,1,0,4.33,0Z"/><path class="cls-2" d="M26.11,19.33c0-2.92,1.71-4.29,4.21-4.29s4.2,1.35,4.22,4.31v.06H31.69v-.08c0-1.25-.57-1.63-1.37-1.63S29,18.08,29,19.33v5.34H26.11Z"/><path class="cls-2" d="M35.7,20.15V15.29h2.85v4.86c0,1.48.72,2.11,1.79,2.11s1.78-.63,1.78-2.11V15.29H45v4.86c0,3.16-1.86,4.77-4.63,4.77S35.7,23.32,35.7,20.15Z"/><path class="cls-2" d="M46.45,20.09A4.82,4.82,0,0,1,51.53,15a4.74,4.74,0,0,1,5,5v4.59H53.9V23.11A3,3,0,0,1,51,24.92,4.57,4.57,0,0,1,46.45,20.09ZM53.67,20a2.17,2.17,0,1,0-4.33,0,2.17,2.17,0,1,0,4.33,0Z"/><path class="cls-2" d="M58.39,19.33c0-2.92,1.71-4.29,4.21-4.29s4.2,1.35,4.22,4.31v.06H64v-.08c0-1.25-.57-1.63-1.37-1.63s-1.36.38-1.36,1.63v5.34H58.39Z"/><path class="cls-2" d="M68,20.15V15.29h2.85v4.86c0,1.48.72,2.11,1.79,2.11s1.78-.63,1.78-2.11V15.29h2.85v4.86c0,3.16-1.86,4.77-4.63,4.77S68,23.32,68,20.15Z"/><path class="cls-2" d="M59.56,14.5H58.39v4.68h2.78V16.11A1.61,1.61,0,0,0,59.56,14.5Z"/><path class="cls-2" d="M27.28,14.5H26.11v4.68h2.78V16.11A1.61,1.61,0,0,0,27.28,14.5Z"/></g></g></svg>